<svg width="1440" height="4564" viewBox="0 0 1440 4564" fill="none" xmlns="http://www.w3.org/2000/svg">
<g clip-path="url(#clip0)">
<mask id="mask0" mask-type="alpha" maskUnits="userSpaceOnUse" x="-328" y="0" width="2400" height="3193">
<path d="M1208.93 3159.87C1208.93 3159.87 2137.36 3356.32 2067.89 2376C1998.42 1395.67 2228.13 888.65 1822.69 536.536C1417.25 184.296 1442.66 6.04499 879.379 96.7109C646.491 146.671 349.995 -61.6101 160.082 18.8508C-145.866 148.472 -353.753 529.19 -324.882 979.927C-278.089 1710.45 -74.6815 2037.32 18.7596 2517.68C-59.9546 3276.72 710.47 3188.98 710.47 3188.98L1208.93 3159.87Z" fill="white"/>
</mask>
<g mask="url(#mask0)">
<rect x="1.65625" y="-0.998047" width="1446.79" height="2507.78" fill="white"/>
</g>
<rect y="1940" width="1440" height="2624" fill="white"/>
</g>
<defs>
<clipPath id="clip0">
<rect width="1440" height="4564" fill="white"/>
</clipPath>
</defs>
</svg>
