<svg width="1440" height="803" viewBox="0 0 1440 803" fill="none" xmlns="http://www.w3.org/2000/svg">
<g clip-path="url(#clip0)">
<rect width="1440" height="803" fill="white"/>
<mask id="mask0" mask-type="alpha" maskUnits="userSpaceOnUse" x="-391" y="104" width="2261" height="3973">
<path d="M1054.47 4033.47C1054.47 4033.47 1924.14 4277.52 1859.34 3058.54C1794.54 1839.57 1960.49 1433.74 1580.78 995.992C1201.07 558.092 1300.44 84.9913 730.788 247.339C512.611 309.517 250.76 27.8884 72.8319 127.983C-213.808 289.235 -408.658 762.691 -381.74 1323.16C-338.113 2231.52 -147.66 2637.93 -60.2639 3235.21C-134.216 4179.06 587.519 4069.78 587.519 4069.78L1054.47 4033.47Z" fill="#F9F9F8"/>
</mask>
<g mask="url(#mask0)">
<rect x="-29" y="75.002" width="1624" height="2844" fill="#F9F9F8"/>
</g>
</g>
<defs>
<clipPath id="clip0">
<rect width="1440" height="803" fill="white"/>
</clipPath>
</defs>
</svg>
